<svg version="1.1" xmlns="http://www.w3.org/2000/svg" width="557" height="557">
    <path d="M0 0 C8.56297657 -0.06980773 17.12583231 -0.1229663 25.68902397 -0.15543652 C29.666158 -0.17102819 33.64309596 -0.19214604 37.62011719 -0.22631836 C41.4651085 -0.25914583 45.30991236 -0.27690176 49.15503311 -0.28463173 C50.61490958 -0.29013361 52.07477692 -0.30087635 53.5345726 -0.31719017 C65.5998597 -0.44654379 75.91568056 0.34547632 85 9 C92.43135085 17.13909855 94.61772619 24.54841343 94.34765625 35.52734375 C93.53254501 43.66929758 90.11970438 50.53306409 84 56 C82.01882582 57.36114901 80.0213924 58.69932689 78 60 C78.845625 60.47308594 79.69125 60.94617188 80.5625 61.43359375 C90.17924394 67.03971834 98.54309192 73.10099071 102.375 84.06640625 C104.7574961 95.24924734 103.43659827 105.29141051 97.75 115.171875 C92.59361587 122.96504647 84.89494085 126.8166243 76 129 C73.37016125 129.16970592 70.85346672 129.25458308 68.22875977 129.22705078 C67.48646622 129.22734283 66.74417267 129.22763489 65.97938538 129.22793579 C63.54993596 129.22655342 61.12080143 129.21104439 58.69140625 129.1953125 C56.99747383 129.19157847 55.30353924 129.18873334 53.60960388 129.18673706 C49.16921946 129.17913128 44.7289676 129.15950928 40.28863525 129.1373291 C35.75038445 129.1168046 31.21211205 129.10772126 26.67382812 129.09765625 C17.78249411 129.0762603 8.89125811 129.04216155 0 129 C1.98628107 127.67581262 4.00812037 126.40335733 6.0625 125.1875 C9.40026516 122.7019302 9.90475342 121.92815308 11 118 C11.27781261 114.69987538 11.25971594 111.41435605 11.23950195 108.10424805 C11.24151611 107.11175049 11.24353027 106.11925293 11.24560547 105.09667969 C11.24914676 102.94468654 11.24838908 100.79268299 11.24382973 98.64069176 C11.23823125 95.23127141 11.2474045 91.8221906 11.2610321 88.41279602 C11.29813645 78.7202504 11.31670503 69.02781975 11.30541992 59.33520508 C11.29956033 53.40296913 11.31787177 47.47121064 11.35130882 41.53907204 C11.35925071 39.28212633 11.35800237 37.02512843 11.34728432 34.7681942 C11.33291583 31.60624903 11.34927243 28.44579877 11.37231445 25.28393555 C11.35466286 23.89417259 11.35466286 23.89417259 11.33665466 22.47633362 C11.43113047 15.84299577 13.22332683 10.77667317 18 6 C16.86820312 5.95101562 15.73640625 5.90203125 14.5703125 5.8515625 C13.08851661 5.77653486 11.606747 5.70098703 10.125 5.625 C9.37863281 5.5940625 8.63226563 5.563125 7.86328125 5.53125 C2.2265625 5.2265625 2.2265625 5.2265625 0 3 C0 2.01 0 1.02 0 0 Z M27 5 C25.83964495 8.48106514 25.87997296 11.1847233 25.88647461 14.8581543 C25.88632858 15.55109589 25.88618256 16.24403748 25.8860321 16.95797729 C25.88672837 19.24675637 25.8945074 21.5354539 25.90234375 23.82421875 C25.90420894 25.41176814 25.90563237 26.99931811 25.90663147 28.58686829 C25.91044866 32.7642272 25.92027214 36.94155131 25.93133545 41.11889648 C25.94156672 45.38199391 25.94613277 49.64509696 25.95117188 53.90820312 C25.96189511 62.27215138 25.97896197 70.63607136 26 79 C28.10294158 76.40199092 30.11772997 73.8270841 32 71.0625 C37.69528301 64.36622786 46.40242758 61.92876934 54.75 60.5625 C61.61006768 59.32922941 65.81286705 57.67545034 70 52 C75.12207451 43.38047373 78.37268308 35.70717473 76.57421875 25.609375 C74.66018014 18.14110164 70.82290471 11.86556976 65.40307617 6.38525391 C61.9370583 4.38726697 58.62056435 4.62855924 54.734375 4.70703125 C53.94097717 4.71127609 53.14757935 4.71552094 52.33013916 4.71989441 C49.8030768 4.7366496 47.27682017 4.77429494 44.75 4.8125 C43.03386571 4.82755097 41.31771888 4.84123866 39.6015625 4.85351562 C35.40073254 4.88654265 31.20050275 4.93830235 27 5 Z M32.2421875 73.9921875 C27.86114171 79.60077269 25.76590031 84.10078433 25.7265625 91.33203125 C25.7059375 92.54310547 25.6853125 93.75417969 25.6640625 95.00195312 C25.63814165 97.53053181 25.61984035 100.05920074 25.609375 102.58789062 C25.43756111 111.58425686 23.98589291 116.52116063 19 124 C26.40116261 124.1780279 33.80176984 124.30030009 41.20458984 124.38452148 C43.72075026 124.4196435 46.23676863 124.46735304 48.75244141 124.52807617 C52.3769846 124.61335111 55.99963394 124.65277338 59.625 124.68359375 C60.74302002 124.71972275 61.86104004 124.75585175 63.01293945 124.79307556 C69.86106685 124.79648974 73.54237657 123.75817877 78.453125 118.89173889 C84.50918272 111.48552965 86.5214907 102.40458169 86.3125 93 C85.37181509 83.96942491 82.45588419 75.52028204 76 69 C62.72095239 58.26374874 43.15248435 61.6271844 32.2421875 73.9921875 Z " fill="#FAE057" transform="translate(240,198)"/>
    <path d="M0 0 C2.43870903 3.0050674 3.99234428 5.95515423 5.50390625 9.51171875 C5.98778809 10.64053467 6.47166992 11.76935059 6.97021484 12.93237305 C7.35702423 13.84471207 7.35702423 13.84471207 7.75164795 14.77548218 C9.18134717 18.14676351 10.62930516 21.51021859 12.07421875 24.875 C12.38542664 25.60107956 12.69663452 26.32715912 13.01727295 27.07524109 C16.53393678 35.26917419 20.13352219 43.42632509 23.72952271 51.58566284 C26.02465376 56.79882358 28.30910832 62.01667084 30.59413147 67.23426819 C32.47891523 71.53645849 34.36811649 75.83659185 36.26757812 80.13232422 C38.0640554 84.19567261 39.84825081 88.26419908 41.62359619 92.33682251 C42.2842035 93.84629029 42.94927346 95.35381392 43.61907959 96.85922241 C44.54189635 98.93498954 45.44848433 101.01714773 46.3515625 103.1015625 C46.86541504 104.27025879 47.37926758 105.43895508 47.90869141 106.64306641 C49.55213576 111.6984042 49.64766942 115.47938484 47.5625 120.375 C46 123 46 123 45 124 C46.13179688 124.02578125 47.26359375 124.0515625 48.4296875 124.078125 C49.91149743 124.13439626 51.39326677 124.19174382 52.875 124.25 C53.99455078 124.27126953 53.99455078 124.27126953 55.13671875 124.29296875 C57.3046875 124.390625 57.3046875 124.390625 61 125 C61.66 126.32 62.32 127.64 63 129 C52.11 129 41.22 129 30 129 C31.65 127.68 33.3 126.36 35 125 C35.33 124.67 35.66 124.34 36 124 C35.82612192 115.67993371 32.75638187 109.25651651 29.25 101.8125 C28.35814266 99.87915714 27.47132145 97.94355373 26.5847168 96.00779724 C25.97300681 94.67281053 25.35987322 93.33847528 24.74536133 92.004776 C21.55463718 85.07075975 18.51868243 78.07271969 15.5 71.0625 C14.96896204 69.83221898 14.43779327 68.60199442 13.90649414 67.37182617 C12.83093924 64.88086371 11.75628725 62.38951419 10.68212891 59.89794922 C7.98660895 53.64829506 5.27732209 47.40459734 2.56982422 41.16012573 C1.17499736 37.94288657 -0.21911408 34.72533758 -1.61328125 31.5078125 C-2.07516846 30.44191895 -2.53705566 29.37602539 -3.01293945 28.27783203 C-3.33866943 27.52614746 -3.66439941 26.77446289 -4 26 C-12.49295489 46.27246207 -20.90123163 66.56618443 -29 87 C-15.47 87 -1.94 87 12 87 C12 88.32 12 89.64 12 91 C-2.19 91.33 -16.38 91.66 -31 92 C-34.82241626 101.40544369 -34.82241626 101.40544369 -38.62817383 110.81762695 C-39.10794678 111.98769287 -39.58771973 113.15775879 -40.08203125 114.36328125 C-40.56905518 115.56251221 -41.0560791 116.76174316 -41.55786133 117.99731445 C-43 121 -43 121 -46 124 C-39.73 124.33 -33.46 124.66 -27 125 C-26.67 126.32 -26.34 127.64 -26 129 C-38.54 129 -51.08 129 -64 129 C-61.13631543 127.09087695 -58.38400791 125.8164185 -55.23046875 124.48828125 C-48.33884632 119.88984316 -45.34813646 113.00830161 -42.43505859 105.52587891 C-42.02120407 104.4956813 -41.60734955 103.4654837 -41.18095398 102.40406799 C-39.82378627 99.01659316 -38.48614058 95.62176539 -37.1484375 92.2265625 C-36.2037765 89.85866164 -35.2578439 87.49126773 -34.31069946 85.12435913 C-32.07794141 79.53645193 -29.85722447 73.94391296 -27.64260161 68.34880579 C-24.39930614 60.15678601 -21.13400199 51.9735424 -17.87030983 43.7896328 C-15.52707277 37.91300794 -13.18672547 32.0352897 -10.85531616 26.15396118 C-10.42444199 25.06871658 -9.99356781 23.98347198 -9.54963684 22.86534119 C-8.75156646 20.85494183 -7.95485649 18.84400159 -7.15986633 16.8323822 C-4.90536804 11.15854726 -2.52714244 5.55788019 0 0 Z " fill="#FAE057" transform="translate(174,198)"/>
    <path d="M0 0 C13.2 0 26.4 0 40 0 C40 0.66 40 1.32 40 2 C38.36368108 3.04892238 36.69514137 4.04906703 35 5 C33.47545547 6.52454453 33.87224926 7.87431532 33.86869812 10.00120544 C33.86468994 10.86320053 33.86068176 11.72519562 33.85655212 12.61331177 C33.8573452 14.04306839 33.8573452 14.04306839 33.8581543 15.50170898 C33.85467987 16.50016342 33.85120544 17.49861786 33.84762573 18.52732849 C33.84025172 20.70503108 33.83491515 22.88274128 33.83133507 25.06045341 C33.8241857 28.51204936 33.80852794 31.9635018 33.78999329 35.41505432 C33.73747077 45.23232989 33.68959515 55.04953051 33.67407227 64.86694336 C33.66396366 70.86587339 33.63455781 76.86444803 33.59275246 82.86323738 C33.58047043 85.14642708 33.57531606 87.42966708 33.57755089 89.71288872 C33.57991627 92.92022118 33.55763979 96.12654461 33.5300293 99.33374023 C33.53993141 100.73616974 33.53993141 100.73616974 33.55003357 102.16693115 C33.45214349 109.13416681 32.23788376 116.46914782 27.36535168 121.78255367 C26.6895026 122.3851896 26.6895026 122.3851896 26 123 C26.86802246 123.01981934 27.73604492 123.03963867 28.63037109 123.06005859 C31.84726267 123.13809872 35.06377045 123.22478881 38.28027344 123.31738281 C39.67308572 123.35569327 41.06599765 123.39054259 42.45898438 123.421875 C44.45986308 123.46747907 46.46042146 123.52651623 48.4609375 123.5859375 C50.26763916 123.63306885 50.26763916 123.63306885 52.11083984 123.68115234 C55 124 55 124 57 126 C57 126.99 57 127.98 57 129 C40.83 129 24.66 129 8 129 C11 126 11 126 13.625 123.9375 C16.06031981 122.22133095 16.06031981 122.22133095 17 120 C17.09274395 118.64136319 17.12464872 117.2783025 17.12457275 115.91650391 C17.12713577 115.06154831 17.12969879 114.20659271 17.13233948 113.32572937 C17.13023972 112.3855043 17.12813995 111.44527924 17.12597656 110.4765625 C17.1278447 109.48771561 17.12971283 108.49886871 17.13163757 107.48005676 C17.13564885 105.32637798 17.13771708 103.17269493 17.13809967 101.01901245 C17.14151043 96.4349895 17.16287251 91.85110899 17.18333054 87.26713562 C17.22135435 78.7283652 17.25262069 70.18974358 17.25048828 61.65087891 C17.24969932 55.71558268 17.27314973 49.78080329 17.3123703 43.84564209 C17.32280862 41.58756842 17.32437041 39.32943493 17.31671906 37.0713501 C17.3070499 33.89986793 17.32837244 30.72993627 17.35644531 27.55859375 C17.34624863 26.63456253 17.33605194 25.71053131 17.32554626 24.75849915 C17.43050354 18.10487975 19.103288 10.896712 24 6 C23.34402832 5.98018066 22.68805664 5.96036133 22.01220703 5.93994141 C19.04938931 5.84487493 16.08729468 5.73512248 13.125 5.625 C12.09246094 5.5940625 11.05992187 5.563125 9.99609375 5.53125 C9.00996094 5.49257812 8.02382813 5.45390625 7.0078125 5.4140625 C6.09660645 5.3826416 5.18540039 5.3512207 4.24658203 5.31884766 C2 5 2 5 0 3 C0 2.01 0 1.02 0 0 Z " fill="#FAE057" transform="translate(345,198)"/>
    <path d="M0 0 C2.25 0 2.25 0 5 1 C6.70175879 3.57166744 7.77644187 6.14503103 9 9 C10.65 6.03 12.3 3.06 14 0 C15.65 0.33 17.3 0.66 19 1 C18.01 1.495 18.01 1.495 17 2 C17.14133499 3.77119803 17.28823208 5.54195287 17.4375 7.3125 C17.51871094 8.29863281 17.59992188 9.28476562 17.68359375 10.30078125 C17.91812559 13.09375599 17.91812559 13.09375599 19 16 C17.02 16 15.04 16 13 16 C13 13.69 13 11.38 13 9 C12.01 10.98 11.02 12.96 10 15 C7 14 7 14 5.8125 11.9375 C5.544375 11.298125 5.27625 10.65875 5 10 C5 11.98 5 13.96 5 16 C3.35 16 1.7 16 0 16 C0.33 15.01 0.66 14.02 1 13 C1.09308544 11.33541327 1.12996185 9.66718003 1.125 8 C1.12886719 6.700625 1.12886719 6.700625 1.1328125 5.375 C1.09594205 2.84988305 1.09594205 2.84988305 0 0 Z " fill="#FAE057" transform="translate(352,337)"/>
    <path d="M0 0 C2.912575 0.08566397 4.56798024 0.57910955 6.66796875 2.625 C8.16091772 4.38391375 9.60436262 6.16313019 11 8 C11.33 6.02 11.66 4.04 12 2 C11.34 1.67 10.68 1.34 10 1 C10.33 0.67 10.66 0.34 11 0 C12.65 0 14.3 0 16 0 C15.67 4.95 15.34 9.9 15 15 C11 15 11 15 9.296875 13.46875 C8.78640625 12.8190625 8.2759375 12.169375 7.75 11.5 C7.22921875 10.8503125 6.7084375 10.200625 6.171875 9.53125 C5.59179688 8.77328125 5.59179688 8.77328125 5 8 C4.67 9.98 4.34 11.96 4 14 C4.66 14.33 5.32 14.66 6 15 C5 16 5 16 2.4375 16.0625 C1.633125 16.041875 0.82875 16.02125 0 16 C0.33 15.01 0.66 14.02 1 13 C1.09308544 11.33541327 1.12996185 9.66718003 1.125 8 C1.12886719 6.700625 1.12886719 6.700625 1.1328125 5.375 C1.09594205 2.84988305 1.09594205 2.84988305 0 0 Z " fill="#FAE057" transform="translate(412,337)"/>
    <path d="M0 0 C3.84419647 0.38606247 5.35947723 2.16628972 7.75 5.0625 C8.36359375 5.79597656 8.9771875 6.52945312 9.609375 7.28515625 C10.06828125 7.85105469 10.5271875 8.41695313 11 9 C11.07427838 5.65747276 11.06546953 3.1964086 10 0 C11.98 0 13.96 0 16 0 C16 0.66 16 1.32 16 2 C15.34 2 14.68 2 14 2 C14 6.62 14 11.24 14 16 C9.46213776 13.73106888 8.05321843 11.90133466 5 8 C5 10.64 5 13.28 5 16 C3.35 16 1.7 16 0 16 C-0.33 15.34 -0.66 14.68 -1 14 C-0.34 14 0.32 14 1 14 C1 10.04 1 6.08 1 2 C0.34 1.67 -0.32 1.34 -1 1 C-0.67 0.67 -0.34 0.34 0 0 Z " fill="#FAE057" transform="translate(215,337)"/>
    <path d="M0 0 C4.04895118 0.07092112 6.72692036 0.3213916 9.75 3.25 C10.69284754 6.70710764 11.09062315 9.10426758 10.0625 12.5625 C8.45139661 14.63391865 7.17546546 15.26184741 4.75 16.25 C2.390625 16.4453125 2.390625 16.4453125 0 16.375 C-0.79921875 16.35695313 -1.5984375 16.33890625 -2.421875 16.3203125 C-3.02515625 16.29710937 -3.6284375 16.27390625 -4.25 16.25 C-4.58 15.59 -4.91 14.93 -5.25 14.25 C-4.59 14.25 -3.93 14.25 -3.25 14.25 C-3.25 10.29 -3.25 6.33 -3.25 2.25 C-3.91 1.92 -4.57 1.59 -5.25 1.25 C-3.68966377 -0.31033623 -2.16052864 0.04292441 0 0 Z M0.75 2.25 C-0.50949049 3.28406673 -0.50949049 3.28406673 -0.34765625 5.53515625 C-0.33605469 6.45167969 -0.32445312 7.36820312 -0.3125 8.3125 C-0.30347656 9.23160156 -0.29445312 10.15070313 -0.28515625 11.09765625 C-0.27355469 11.80792969 -0.26195312 12.51820313 -0.25 13.25 C1.59725052 13.94159401 1.59725052 13.94159401 3.75 14.25 C6.76785339 12.60509414 6.76785339 12.60509414 7.625 10.4375 C7.8077937 7.23861024 6.69542579 5.73209498 4.75 3.25 C2.71756452 2.28122943 2.71756452 2.28122943 0.75 2.25 Z " fill="#FAE057" transform="translate(148.25,336.75)"/>
    <path d="M0 0 C0.99 0.66 1.98 1.32 3 2 C2.67 2.99 2.34 3.98 2 5 C1.34 5 0.68 5 0 5 C0 4.34 0 3.68 0 3 C-2.31 3.33 -4.62 3.66 -7 4 C-7.79356801 5.74671588 -7.79356801 5.74671588 -8 8 C-6.93478871 10.80329738 -6.93478871 10.80329738 -5 13 C-3.68 13 -2.36 13 -1 13 C-0.67 12.01 -0.34 11.02 0 10 C-0.66 10 -1.32 10 -2 10 C-2 9.34 -2 8.68 -2 8 C-0.02 8 1.96 8 4 8 C3.40138258 10.35171131 2.73075648 12.6859378 2 15 C-1.50012896 16.75006448 -5.30277964 15.98006755 -9 15 C-11.125 12.8125 -11.125 12.8125 -12 10 C-11.86866743 6.71668571 -11.61807192 4.77930807 -9.5625 2.1875 C-6.35595616 -0.24947332 -3.9780401 -0.24355348 0 0 Z " fill="#FAE057" transform="translate(69,337)"/>
    <path d="M0 0 C2.55078958 2.22165544 2.93332671 3.60829443 3.5 6.9375 C3 10 3 10 1 12.9375 C-2.02638732 15.01814128 -2.67082958 15.36594423 -6.125 15.1875 C-9.44476516 14.52103199 -9.90301899 14.12265246 -12.125 11.3125 C-13.18102704 7.31468334 -12.86954695 5.65780925 -11 2 C-7.66707005 -1.82669735 -4.67701579 -1.27554976 0 0 Z M-8.125 3 C-8.74375 3.66 -9.3625 4.32 -10 5 C-8.73025028 9.41522109 -8.73025028 9.41522109 -6 13 C-3.06546739 12.63318342 -2.13562754 12.13562754 0 10 C0.50059916 7.58517587 0.50059916 7.58517587 0 5 C-1.7712618 2.64477775 -1.7712618 2.64477775 -4 1 C-6.24362573 0.7715451 -6.24362573 0.7715451 -8.125 3 Z " fill="#FAE057" transform="translate(100,338)"/>
    <path d="M0 0 C3.63 0 7.26 0 11 0 C11 1.32 11 2.64 11 4 C8.69 3.67 6.38 3.34 4 3 C4 3.99 4 4.98 4 6 C5.65 5.67 7.3 5.34 9 5 C9 6.65 9 8.3 9 10 C8.34 10 7.68 10 7 10 C7 9.34 7 8.68 7 8 C6.01 8 5.02 8 4 8 C4 9.98 4 11.96 4 14 C6.31 13.34 8.62 12.68 11 12 C10.67 13.32 10.34 14.64 10 16 C6.7 16 3.4 16 0 16 C0 10.72 0 5.44 0 0 Z " fill="#FAE057" transform="translate(386,337)"/>
    <path d="M0 0 C3.63 0 7.26 0 11 0 C11 1.32 11 2.64 11 4 C8.69 3.67 6.38 3.34 4 3 C4 3.99 4 4.98 4 6 C5.65 5.67 7.3 5.34 9 5 C9 6.65 9 8.3 9 10 C8.34 10 7.68 10 7 10 C7 9.34 7 8.68 7 8 C6.01 8 5.02 8 4 8 C4 9.98 4 11.96 4 14 C6.31 13.34 8.62 12.68 11 12 C10.67 13.32 10.34 14.64 10 16 C6.7 16 3.4 16 0 16 C0 10.72 0 5.44 0 0 Z " fill="#FAE057" transform="translate(274,337)"/>
    <path d="M0 0 C1.65 0 3.3 0 5 0 C6.30048841 2.60097682 6.56471422 5.13955062 7 8 C9.34973818 6.10244856 9.34973818 6.10244856 9.125 2.875 C9.08375 1.92625 9.0425 0.9775 9 0 C10.98 0 12.96 0 15 0 C15 0.66 15 1.32 15 2 C14.34 2 13.68 2 13 2 C12.80664062 2.67546875 12.61328125 3.3509375 12.4140625 4.046875 C12.15367187 4.93890625 11.89328125 5.8309375 11.625 6.75 C11.36976563 7.63171875 11.11453125 8.5134375 10.8515625 9.421875 C10.0790066 11.76080572 9.16374324 13.83442562 8 16 C7.34 16 6.68 16 6 16 C4.99303432 13.89915791 3.9946411 11.79420511 3 9.6875 C2.443125 8.51574219 1.88625 7.34398437 1.3125 6.13671875 C0 3 0 3 0 0 Z " fill="#FAE057" transform="translate(245,337)"/>
    <path d="M0 0 C0.763125 0.20625 1.52625 0.4125 2.3125 0.625 C1.9825 1.945 1.6525 3.265 1.3125 4.625 C-0.0075 3.965 -1.3275 3.305 -2.6875 2.625 C-1.883125 3.429375 -1.07875 4.23375 -0.25 5.0625 C3.3125 8.625 3.3125 8.625 3.5625 11.0625 C3.48 11.908125 3.3975 12.75375 3.3125 13.625 C0.3125 15.625 0.3125 15.625 -2.875 15.25 C-4.2671875 14.940625 -4.2671875 14.940625 -5.6875 14.625 C-6.0175 13.305 -6.3475 11.985 -6.6875 10.625 C-6.0275 10.295 -5.3675 9.965 -4.6875 9.625 C-3.6975 11.11 -3.6975 11.11 -2.6875 12.625 C-2.0275 12.625 -1.3675 12.625 -0.6875 12.625 C-0.6875 11.965 -0.6875 11.305 -0.6875 10.625 C-1.5125 10.026875 -2.3375 9.42875 -3.1875 8.8125 C-5.6875 6.625 -5.6875 6.625 -6.1875 4 C-5.40278344 0.27259636 -3.65121262 -0.50947153 0 0 Z " fill="#FAE057" transform="translate(306.6875,337.375)"/>
    <path d="M0 0 C3.63 0 7.26 0 11 0 C11.33 0.66 11.66 1.32 12 2 C11.67 2.66 11.34 3.32 11 4 C9.68 3.67 8.36 3.34 7 3 C7.33 7.29 7.66 11.58 8 16 C6.02 16 4.04 16 2 16 C2 15.34 2 14.68 2 14 C2.66 14 3.32 14 4 14 C4 10.37 4 6.74 4 3 C2.35 3.33 0.7 3.66 -1 4 C-0.67 2.68 -0.34 1.36 0 0 Z " fill="#FAE057" transform="translate(443,337)"/>
    <path d="M0 0 C3.96 0 7.92 0 12 0 C12 1.32 12 2.64 12 4 C10.35 3.67 8.7 3.34 7 3 C7 6.63 7 10.26 7 14 C7.66 14 8.32 14 9 14 C9 14.66 9 15.32 9 16 C7.02 16 5.04 16 3 16 C3.33 11.71 3.66 7.42 4 3 C2.68 3.33 1.36 3.66 0 4 C0 2.68 0 1.36 0 0 Z " fill="#FAE057" transform="translate(325,337)"/>
    <path d="M0 0 C1.98 0 3.96 0 6 0 C5.67 4.62 5.34 9.24 5 14 C6.98 13.34 8.96 12.68 11 12 C10.67 13.32 10.34 14.64 10 16 C6.7 16 3.4 16 0 16 C0.33 15.01 0.66 14.02 1 13 C1.09308544 11.33541327 1.12996185 9.66718003 1.125 8 C1.12886719 6.700625 1.12886719 6.700625 1.1328125 5.375 C1.09594205 2.84988305 1.09594205 2.84988305 0 0 Z " fill="#FAE057" transform="translate(118,337)"/>
    <path d="M0 0 C1.4540625 0.0309375 1.4540625 0.0309375 2.9375 0.0625 C2.9375 0.7225 2.9375 1.3825 2.9375 2.0625 C2.2775 2.0625 1.6175 2.0625 0.9375 2.0625 C0.9375 6.0225 0.9375 9.9825 0.9375 14.0625 C1.5975 14.3925 2.2575 14.7225 2.9375 15.0625 C1.9375 16.0625 1.9375 16.0625 -0.625 16.125 C-1.429375 16.104375 -2.23375 16.08375 -3.0625 16.0625 C-3.3925 15.4025 -3.7225 14.7425 -4.0625 14.0625 C-3.4025 14.0625 -2.7425 14.0625 -2.0625 14.0625 C-2.0625 10.1025 -2.0625 6.1425 -2.0625 2.0625 C-2.7225 1.7325 -3.3825 1.4025 -4.0625 1.0625 C-3.0625 0.0625 -3.0625 0.0625 0 0 Z " fill="#FAE057" transform="translate(197.0625,336.9375)"/>
</svg>
